<?xml version="1.0" encoding="UTF-8"?>
<svg xmlns="http://www.w3.org/2000/svg" version="1.1" viewBox="0 0 310 40">
  <defs>
    <style>
      .cls-1 {
        fill: #233e7a;
      }
    </style>
  </defs>
  <!-- Generator: Adobe Illustrator 28.7.1, SVG Export Plug-In . SVG Version: 1.2.0 Build 142)  -->
  <g>
    <g id="Layer_1">
      <g>
        <g>
          <path class="cls-1" d="M237.9,32.9h-1.6v-1.3h1.6c.4,0,.6.2.6.6v.2c0,.4-.2.6-.6.6Z"/>
          <path class="cls-1" d="M238.8,34.7v.2c0,.4-.2.6-.6.6h-1.9v-1.3h1.9c.4,0,.6.2.6.6Z"/>
          <path class="cls-1" d="M232,28v11h31.9v-11h-31.9ZM240,36.4c-.3.3-.7.4-1.3.4h-4v-6.5h3.7c.6,0,1.1.1,1.3.4.3.3.4.7.4,1.3s0,.7-.2.9c-.2.2-.4.4-.6.5.5.1.8.5,1,1,0,.2,0,.4,0,.7,0,.6-.1,1.1-.4,1.3ZM247.4,31.6h-3.5v1.3h2.7v1.3h-2.7v1.4h3.5v1.3h-5.2v-6.5h5.2v1.3ZM254.2,31.6h-2v5.2h-1.7v-5.2h-2v-1.3h5.6v1.3ZM259.4,36.8l-.4-1.2h-2.3l-.4,1.2h-1.8l2.5-6.5h1.9l2.5,6.5h-1.8ZM257.1,34.4h1.5l-.7-2.2-.7,2.2Z"/>
        </g>
        <g>
          <g>
            <path class="cls-1" d="M100.3,22.8h-4.2l5.7-14.7h4.3l5.7,14.7h-4.2l-1-2.6h-5.4l-1,2.6ZM102.2,17.4h3.4l-1.7-5-1.7,5Z"/>
            <path class="cls-1" d="M114.7,8.1h9c1.5,0,2.6.3,3.3,1,.7.7,1,1.7,1,3.2v1.9c0,1.2-.2,2.1-.6,2.7s-1,1.1-1.9,1.3l2.7,4.6h-4.2l-2.5-4.4h-3v4.4h-3.9v-14.7ZM124.1,12.3c0-.8-.4-1.3-1.3-1.3h-4.3v4.4h4.3c.9,0,1.3-.4,1.3-1.3v-1.9Z"/>
            <path class="cls-1" d="M134.7,22.8h-4.2l5.7-14.7h4.3l5.7,14.7h-4.2l-1-2.6h-5.4l-1,2.6ZM136.6,17.4h3.4l-1.7-5-1.7,5Z"/>
            <path class="cls-1" d="M149.1,8.1h8.6c1.4,0,2.4.3,3.1.9.7.6,1,1.6,1,2.9s-.2,1.5-.6,2.1c-.4.5-.8.9-1.4,1.1,1.2.3,1.9,1.1,2.4,2.3.1.4.2.9.2,1.5,0,1.4-.3,2.4-1,3-.7.6-1.7,1-3.1,1h-9.2v-14.7ZM157.9,12.3c0-.8-.4-1.3-1.3-1.3h-3.6v2.9h3.6c.9,0,1.3-.4,1.3-1.3v-.4ZM158.6,18.2c0-.8-.4-1.3-1.3-1.3h-4.3v3h4.3c.9,0,1.3-.4,1.3-1.3v-.4Z"/>
            <path class="cls-1" d="M176.8,8.1l2.6,9.5,2.3-9.5h4.2l-4.1,14.7h-4.1l-2.6-9.2-2.6,9.2h-4.1l-4.1-14.7h4.2l2.3,9.5,2.6-9.5h3.4Z"/>
            <path class="cls-1" d="M201.8,22.8h-3.9v-6h-5.4v6h-3.9v-14.7h3.9v5.8h5.4v-5.8h3.9v14.7Z"/>
            <path class="cls-1" d="M217.4,22.8h-11.9v-14.7h11.9v3h-8v2.8h6.3v2.9h-6.3v3.1h8v3Z"/>
            <path class="cls-1" d="M232.9,22.8h-11.9v-14.7h11.9v3h-8v2.8h6.3v2.9h-6.3v3.1h8v3Z"/>
            <path class="cls-1" d="M240.3,19.9h7.8v3h-11.7v-14.7h3.9v11.8Z"/>
            <path class="cls-1" d="M251.1,19.8c3.9.2,6.6.3,8,.3s.6,0,.8-.3c.2-.2.3-.4.3-.8v-1.9h-4.9c-1.5,0-2.6-.3-3.3-1-.7-.7-1-1.7-1-3.2v-.6c0-1.5.3-2.5,1-3.2.7-.7,1.8-1,3.3-1h7.5v3h-6.7c-.9,0-1.3.4-1.3,1.3v.4c0,.8.4,1.3,1.3,1.3h3.9c1.4,0,2.4.3,3.1,1,.7.6,1,1.7,1,3v1.1c0,1.4-.3,2.4-1,3-.7.6-1.7,1-3.1,1s-1.5,0-2.3,0h-2c-1.5-.2-3-.3-4.5-.4v-2.8Z"/>
          </g>
          <g>
            <polygon class="cls-1" points="83.3 13.2 76.8 13.2 73 6.5 56.3 6.5 52.4 13.2 46 13.2 49.8 6.5 53.1 1 76.2 1 79.4 6.5 83.3 13.2"/>
            <g>
              <polygon class="cls-1" points="83.3 15.5 83.3 30.1 70.6 30.1 70.6 23.8 76.9 23.8 76.9 15.5 83.3 15.5"/>
              <polygon class="cls-1" points="52.4 23.8 58.7 23.8 58.7 30.1 46 30.1 46 15.5 52.4 15.5 52.4 23.8"/>
              <rect class="cls-1" x="58.7" y="17.4" width="11.9" height="6.4"/>
            </g>
          </g>
        </g>
      </g>
    </g>
  </g>
</svg>