<svg width="297" height="28" viewBox="0 0 297 28" fill="none" xmlns="http://www.w3.org/2000/svg">
<path d="M0.137777 23.7121L9.23127 0H19.4758L29.9506 24.2301L30.411 25.2085C30.8139 26.1294 30.1808 27.1654 29.1449 27.1654H19.073L11.0154 8.63306L8.42552 15.3668L12.6845 25.2661C13.0874 26.187 12.3967 27.2229 11.4183 27.2229H1.05864L0.0802228 24.8057C-0.0348847 24.4028 -0.0348847 23.9999 0.137777 23.7121Z" fill="#2727FF"/>
<path d="M36.0512 27.1078H46.2958C47.3318 27.1078 48.0224 26.0143 47.562 25.0934L47.1591 24.1726L36.6268 0H26.4397C25.4038 0 24.7131 1.09352 25.1736 2.01438L25.4038 2.53236L36.0512 27.1078Z" fill="#2727FF"/>
<path d="M65.8641 2.0144H71.9648L81.6914 25.0935H74.9L73.231 21.0071H64.4253L62.8137 25.0935H56.08L65.8641 2.0144ZM71.3893 16.0575L68.8569 9.55395L66.267 16.0575H71.3893Z" fill="black"/>
<path d="M82.7275 15.0793V2.18726H89.1736V14.9066C89.1736 18.1872 90.8426 19.7987 93.375 19.7987C95.9073 19.7987 97.5764 18.3023 97.5764 15.0793V2.18726H104.022V14.9066C104.022 22.2735 99.821 25.5541 93.3174 25.5541C86.8714 25.4965 82.7275 22.216 82.7275 15.0793Z" fill="black"/>
<path d="M113.461 7.76997H106.555V2.18726H126.641V7.76997H119.792V25.0936H113.461V7.76997Z" fill="black"/>
<path d="M127.677 13.6977V13.6402C127.677 7.07906 132.972 1.72656 140.051 1.72656C147.13 1.72656 152.368 7.02151 152.368 13.5826V13.6402C152.368 20.2013 147.073 25.5538 139.993 25.5538C132.914 25.5538 127.677 20.2589 127.677 13.6977ZM145.864 13.6977V13.6402C145.864 10.3596 143.504 7.48194 139.993 7.48194C136.54 7.48194 134.181 10.3021 134.181 13.5826V13.6402C134.181 16.9208 136.54 19.7984 140.051 19.7984C143.504 19.7984 145.864 17.0359 145.864 13.6977Z" fill="black"/>
<path d="M156.569 2.18726H160.828L167.792 13.0074L174.756 2.18726H179.072V25.0936H175.044V8.69083L167.849 19.4534H167.677L160.54 8.74838V25.0936H156.569V2.18726Z" fill="black"/>
<path d="M193.058 2.0144H196.799L206.871 25.0935H202.612L200.31 19.5683H189.49L187.13 25.0935H182.986L193.058 2.0144ZM198.813 16L194.842 6.84892L190.929 16H198.813Z" fill="black"/>
<path d="M210.784 2.18726H220.971C222.41 2.18726 223.677 2.41747 224.77 2.82035C225.864 3.22322 226.784 3.79876 227.533 4.48941C228.166 5.1225 228.626 5.8707 228.914 6.67645C229.259 7.4822 229.432 8.40306 229.432 9.43903V9.49658C229.432 10.4174 229.317 11.2807 229.029 12.0289C228.741 12.7771 228.396 13.4678 227.878 14.0433C227.418 14.6189 226.842 15.1368 226.151 15.5397C225.461 15.9426 224.77 16.2304 223.964 16.4606L230.123 25.1512H225.403L219.763 17.1512H219.705H214.698V25.1512H210.727V2.18726H210.784ZM220.684 13.5253C222.123 13.5253 223.274 13.18 224.137 12.4894C225 11.7987 225.403 10.8779 225.403 9.66924V9.61169C225.403 8.34551 225 7.42465 224.137 6.79155C223.331 6.15846 222.123 5.81314 220.626 5.81314H214.756V13.5253H220.684Z" fill="black"/>
<path d="M234.439 2.18726H238.41V13.698L249.288 2.18726H254.238L244.741 12.0289L254.698 25.0936H249.806L241.979 14.7915L238.41 18.475V25.0936H234.439V2.18726Z" fill="black"/>
<path d="M258.151 2.18726H275.072V5.81314H262.122V11.7412H273.633V15.3671H262.122V21.4678H275.245V25.0936H258.151V2.18726Z" fill="black"/>
<path d="M285.662 5.92825H278.41V2.18726H297V5.92825H289.748V25.0936H285.662V5.92825Z" fill="black"/>
</svg>
