<svg class="svg-icon" width="117" height="35" viewBox="0 0 167 50" fill="none" xmlns="http://www.w3.org/2000/svg"><path d="M82.997 41.352h-8.635a2.594 2.594 0 0 1-2.601-2.587 2.594 2.594 0 0 1 2.6-2.587h10.302l-1.011-1.741h-9.299c-2.397 0-4.343 1.936-4.343 4.32 0 .355.042.71.127 1.04.196.803.62 1.513 1.207 2.07a4.33 4.33 0 0 0 3.018 1.21h8.635c1.436 0 2.6 1.158 2.6 2.586a2.584 2.584 0 0 1-1.537 2.359 2.6 2.6 0 0 1-1.063.228h-9.97l1.012 1.742h9.137a4.398 4.398 0 0 0 1.759-.448 4.317 4.317 0 0 0 2.405-3.872c.009-2.384-1.938-4.32-4.343-4.32ZM106.541 47.844a.82.82 0 0 1-.723.415h-.042a.842.842 0 0 1-.731-.415l-2.813-4.852-4.964-8.555h-2.014l4.963 8.555-2.813 4.852a.819.819 0 0 1-.723.415h-.042a.819.819 0 0 1-.722-.415l-7.778-13.399h-2.014l8.278 14.262A2.55 2.55 0 0 0 96.656 50h.025a2.55 2.55 0 0 0 2.253-1.293l2.303-3.974 2.304 3.974c.476.82 1.3 1.293 2.252 1.293h.025a2.55 2.55 0 0 0 2.253-1.293c1.445-2.494 2.89-4.98 4.335-7.473v-3.475l-5.865 10.085ZM114.513 50V34.445h1.751V50h-1.751ZM118.38 34.445h13.498v1.742h-5.874V50h-1.75V36.187h-5.874v-1.742ZM147.993 34.445v1.742h-8.236c-3.357 0-6.069 2.705-6.069 6.036 0 3.339 2.72 6.035 6.069 6.035h8.236V50h-8.236c-4.318 0-7.819-3.483-7.819-7.777 0-4.295 3.501-7.778 7.819-7.778h8.236ZM152.217 34.445v6.907h12.554v-6.907h1.751V50h-1.751v-6.907h-12.554V50h-1.751V34.445h1.751ZM100.298 4.059A4.052 4.052 0 0 0 96.24 0H85.378C77.07 0 70.14 6.598 70.011 14.895c-.127 8.461 6.714 15.379 15.138 15.379h15.149v-8.04c-2.425 0-12.686.037-14.294.037h-.383c-.345 0-.702 0-1.047-.012-.23-.013-.498-.039-.804-.077a6.67 6.67 0 0 1-1.902-.536 3.087 3.087 0 0 1-.574-.332 4.68 4.68 0 0 1-.868-.791 3.707 3.707 0 0 1-.332-.447 9.546 9.546 0 0 1-.804-1.442 8.173 8.173 0 0 1-.676-2.757 9.343 9.343 0 0 1 .28-3.114c.115-.434.269-.855.473-1.264.204-.42.434-.842.702-1.238.115-.178.217-.331.319-.446.191-.23.395-.447.625-.638.332-.281.702-.498 1.11-.677.473-.204.97-.332 1.481-.421.358-.051.74-.09 1.123-.102.434-.013.843-.013 1.238-.013.32 0 .472.013.472.013 1.52.013 8.641.115 9.777.128 2.234.038 4.084-1.787 4.084-4.046Z" fill="#fff"/><path d="M128.313 30.274 116.278 9.419l-12.036 20.855h-9.394l15.507-26.866A6.771 6.771 0 0 1 116.265 0h.038a6.77 6.77 0 0 1 5.909 3.408l15.507 26.866h-9.406Z" fill="#fff"/><path d="M158.319 21.161c2.986-2.157 4.875-5.667 4.875-9.483C163.194 5.246 157.961 0 151.516 0h-13.452a5.306 5.306 0 0 0-5.31 5.31v2.833h18.149c2.221 0 4.097 1.748 4.148 3.982a4.09 4.09 0 0 1-1.187 2.974 4.037 4.037 0 0 1-2.884 1.187h-18.226v14h8.143v-5.858h9.202l5.284 5.859h11.142l-8.206-9.126ZM126.028 19.068h-19.502v6.216h19.502v-6.216Z" fill="#fff"/><path d="M140.897 5.552h-8.143v14.269h8.143V5.552ZM38.47 0H11.54a11.487 11.487 0 0 0-8.153 3.377A11.505 11.505 0 0 0 .01 11.531c0 6.372 5.168 11.54 11.54 11.54H38.48c3.19 0 6.069-1.291 8.154-3.376a11.51 11.51 0 0 0 3.377-8.164C50.01 5.168 44.84 0 38.47 0Zm5.647 17.189a7.96 7.96 0 0 1-5.648 2.34 7.983 7.983 0 0 1-7.987-7.988c0-2.203.89-4.2 2.339-5.648a7.96 7.96 0 0 1 5.648-2.34c2.203 0 4.2.891 5.648 2.34a7.96 7.96 0 0 1 2.34 5.648c0 2.202-.891 4.199-2.34 5.648Z" fill="#fff"/><path d="M46.623 30.305a11.504 11.504 0 0 0-8.154-3.377H11.541C5.168 26.928 0 32.097 0 38.47c0 3.191 1.292 6.069 3.377 8.154A11.505 11.505 0 0 0 11.531 50h26.928C44.832 50 50 44.832 50 38.46a11.423 11.423 0 0 0-3.377-8.155ZM11.54 46.457a7.96 7.96 0 0 1-5.648-2.34 7.96 7.96 0 0 1-2.34-5.648c0-2.202.891-4.2 2.34-5.648a7.96 7.96 0 0 1 5.648-2.34c2.202 0 4.199.891 5.648 2.34a7.99 7.99 0 0 1-5.648 13.636Z" fill="#FF5450"/></svg>