<svg width="80" height="36" viewBox="0 0 80 36" fill="none" xmlns="http://www.w3.org/2000/svg">
<g id="Logo_ eng">
<path id="Shape" fill-rule="evenodd" clip-rule="evenodd" d="M75.8925 0H4.09194C1.83337 0 0 1.71657 0 3.83442V32.1321C0 34.25 1.83337 36 4.09194 36H75.8925C78.1511 36 80 34.2894 80 32.2179V3.92102C80 1.71829 78.1895 0 75.8925 0ZM55.2904 34.3648H4.08945C2.79283 34.3648 1.74219 33.3487 1.74219 32.1329V3.83517C1.74219 2.61933 2.79192 1.63672 4.08945 1.63672H55.2904V34.3648ZM78.2534 30.6318L74.3434 34.3633H68.9375L78.2534 25.5566V30.6318ZM78.255 22.7369H75.8995L63.556 34.3637H58.1592L70.5027 22.7369H65.1169L57.0391 30.3569V25.3615L59.7951 22.7361H57.0391V1.63477H75.894C77.2126 1.63477 78.2559 2.63453 78.2559 3.91896V22.7369H78.255Z" fill="#FF870F"/>
<path id="Path" fill-rule="evenodd" clip-rule="evenodd" d="M10.77 31.0163C14.4358 31.0163 15.887 29.1711 15.887 26.0956V23.7693H12.4881V26.7832C12.4881 27.6518 12.062 28.1217 10.7883 28.1217C9.55383 28.1217 9.08932 27.6509 9.08932 26.7832V9.19992C9.08932 8.33135 9.55383 7.86148 10.7883 7.86148C12.062 7.86148 12.4881 8.3322 12.4881 9.19992V12.2292H15.887V9.88758C15.887 6.81198 14.4358 4.9668 10.77 4.9668C7.14347 4.9668 5.69141 6.81198 5.69141 9.88758V26.0964C5.69232 29.172 7.14347 31.0163 10.77 31.0163Z" fill="white"/>
<path id="Shape_2" fill-rule="evenodd" clip-rule="evenodd" d="M20.7934 25.6652H24.3431L24.9996 30.6606H28.318L24.5369 5.33984H20.6014L16.8203 30.6606H20.1387L20.7934 25.6652ZM22.568 11.1582L23.9963 22.7361H21.1406L22.568 11.1582Z" fill="white"/>
<path id="Shape_3" fill-rule="evenodd" clip-rule="evenodd" d="M33.0677 19.6347H34.2455C35.5192 19.6347 36.3733 20.1611 36.3733 21.6445V26.1674C36.3733 28.3744 36.4446 29.5397 37.4093 30.6595H40.4963C39.9943 29.712 39.7721 28.6642 39.7721 27.5787V21.8623C39.7721 20.198 39.4804 19.1125 37.4733 18.5697C39.0936 18.2439 39.4959 17.1224 39.4959 15.7111V8.51123C39.4959 6.59402 38.1033 5.33789 36.0194 5.33789H29.668V30.6586H33.0668V19.6347H33.0677ZM33.0664 8.26562H35.325C35.9038 8.26562 36.0976 8.40196 36.0976 8.94471V16.0725C36.0976 16.6153 35.9038 16.7919 35.325 16.7919H33.0664V8.26562Z" fill="white"/>
<path id="Path_2" fill-rule="evenodd" clip-rule="evenodd" d="M46.3839 31.0163C49.6254 31.0163 51.2522 29.1351 51.2522 26.6023V23.0568C51.2522 21.5735 50.8288 20.452 49.8641 19.3665L45.8846 14.6995C45.229 13.9398 44.9145 13.2881 44.9145 12.2026V9.19992C44.9145 8.33135 45.389 7.86148 46.4296 7.86148C47.4711 7.86148 47.9457 8.3322 47.9457 9.19992V12.5739H51.3436V9.38084C51.3436 6.84799 49.6904 4.9668 46.4488 4.9668C43.2082 4.9668 41.5156 6.84799 41.5156 9.38084V12.9263C41.5156 14.4097 41.9472 15.5312 42.8735 16.6167L46.9334 21.2837C47.59 22.0433 47.9457 22.695 47.9457 23.7805V26.7832C47.9457 27.6518 47.4254 28.1217 46.3839 28.1217C45.3424 28.1217 44.823 27.6509 44.823 26.7832V23.4247H41.5165V26.6014C41.5156 29.1351 43.1423 31.0163 46.3839 31.0163Z" fill="white"/>
<path id="Path_3" fill-rule="evenodd" clip-rule="evenodd" d="M66.4264 12.4206C67.2063 10.9193 67.637 9.84149 67.637 8.62823C67.637 6.27973 66.5498 5.33398 64.8664 5.33398C63.5122 5.33398 62.0958 6.20084 62.0958 8.69853H63.8816C63.8816 7.49299 64.1888 6.85421 64.8865 6.85421C65.6052 6.85421 65.8512 7.47155 65.8512 8.70282C65.8512 9.5491 65.7396 10.3011 64.8774 11.9182L61.9961 17.5189V19.0331H67.691V17.4829H63.8203L66.4264 12.4206Z" fill="white"/>
<path id="Shape_4" fill-rule="evenodd" clip-rule="evenodd" d="M72.3779 5.51172H70.6981L67.2344 14.2858V15.7606H70.6323V19.0334H72.3779V15.7606H73.2959V14.2103H72.3779V5.51172ZM70.6331 14.21H68.8711L70.6331 9.70508V14.21Z" fill="white"/>
</g>
</svg>
