<svg width="118" height="42" viewBox="0 0 118 42" fill="none" xmlns="http://www.w3.org/2000/svg">
<path d="M108.628 18.1271H88.1336V19.3681C88.1336 21.6591 87.055 22.8126 84.9354 22.8126H77.9129V19.3681H83.5852C84.3697 19.3681 84.7468 18.9704 84.7468 18.1828H80.5605C78.7954 18.1828 77.9054 17.3317 77.9054 15.6134V10.4745C77.9054 8.74831 78.803 7.89715 80.5756 7.89715H85.4634C87.2435 7.89715 88.1336 8.74831 88.1336 10.4745V14.6986H90.487V7.87329H93.7908V14.6986H96.7929V7.87329H100.104V14.6986H103.167V7.87329H106.478V14.6986H107.979C108.952 14.6986 109.435 14.1815 109.435 13.1554V0.00590599H112.807V14.6986C112.807 16.9816 111.69 18.1271 109.465 18.1271H108.628ZM84.7468 13.8713V12.153C84.7468 11.6041 84.4526 11.3257 83.8643 11.3257H82.137C81.5335 11.3257 81.2393 11.5962 81.2393 12.153V13.8713C81.2393 14.444 81.5335 14.7304 82.137 14.7304H83.8643C84.4526 14.7384 84.7468 14.452 84.7468 13.8713ZM75.0843 4.78677C75.0843 5.27203 74.9259 5.68566 74.6016 6.02773C74.2772 6.36981 73.8774 6.52889 73.4249 6.52889C72.9723 6.52889 72.5876 6.36184 72.2783 6.01184C71.954 5.66976 71.7956 5.25614 71.7956 4.78677C71.7956 4.3015 71.954 3.8958 72.2783 3.55378C72.5876 3.20378 72.9723 3.03672 73.4249 3.03672C73.8774 3.03672 74.2772 3.20378 74.6016 3.54585C74.9184 3.87996 75.0843 4.28566 75.0843 4.78682V4.78677ZM71.2977 4.78677C71.2977 5.26406 71.1393 5.67773 70.815 6.01184C70.4906 6.36184 70.106 6.52889 69.6534 6.52889C69.2008 6.52889 68.8161 6.36184 68.4918 6.01184C68.1674 5.67773 68.009 5.25614 68.009 4.78677C68.009 4.3015 68.1674 3.88788 68.4918 3.55378C68.8161 3.20378 69.2008 3.03672 69.6534 3.03672C70.106 3.03672 70.4906 3.20378 70.815 3.55378C71.1318 3.88788 71.2977 4.30155 71.2977 4.78677ZM76.5703 17.9999C76.5703 20.3068 75.8009 22.749 74.2697 24.3559C72.7384 25.9707 70.8678 26.7821 68.6728 26.7821C66.4853 26.7821 64.6222 25.9707 63.0986 24.3559C61.7333 22.916 60.9714 21.1978 60.8281 19.2091H64.1546C64.2677 20.2432 64.7127 21.166 65.4897 21.9933C66.4024 22.9637 67.4508 23.449 68.6426 23.449C69.8646 23.449 70.9432 22.9797 71.8408 22.033C72.7234 21.1023 73.1835 19.5113 73.1835 18.1988H69.0273C67.2472 18.1988 66.3571 17.3476 66.3571 15.6373V10.5064C66.3571 8.78014 67.2472 7.92101 69.0122 7.92101H73.9001C75.6651 7.92101 76.5703 8.78014 76.5703 10.5143V17.9998V17.9999ZM73.1835 13.9031V12.1689C73.1835 11.62 72.8893 11.3416 72.316 11.3416H70.6038C70.0305 11.3416 69.7363 11.62 69.7363 12.1689V13.9031C69.7363 14.4599 70.0305 14.7463 70.6038 14.7463H72.316C72.8893 14.7543 73.1835 14.4679 73.1835 13.9031ZM117.921 18.1271H114.609V0.00585938H117.921V18.1271Z" fill="#8EC641"/>
<path d="M24.6116 19.3681C24.6116 21.6591 23.5405 22.8126 21.4134 22.8126H14.3984V19.3681H20.0632C20.8401 19.3681 21.2248 18.9704 21.2248 18.1828H17.046C15.281 18.1828 14.3984 17.3317 14.3984 15.6134V10.4745C14.3984 8.74831 15.281 7.89715 17.0536 7.89715H21.9565C23.7215 7.89715 24.6116 8.74831 24.6116 10.4745V14.6986H26.2861V7.90512H29.5975V14.6986H32.3205V10.4507C32.3205 8.72444 33.1955 7.87328 34.9605 7.87328H39.8182C41.5832 7.87328 42.4733 8.72444 42.4733 10.4507V14.6986H44.3062V7.87328H51.8341C53.6067 7.87328 54.4967 8.72444 54.4967 10.4507V14.6986H54.7381C55.7036 14.6986 56.1939 14.1815 56.1939 13.1554V0.00590599H59.5656V14.6986C59.5656 16.8782 58.5398 18.0238 56.4956 18.1271H24.6116V19.3681ZM21.2323 13.8713V12.153C21.2323 11.6041 20.9306 11.3257 20.3423 11.3257H18.6225C18.0191 11.3257 17.7173 11.5962 17.7173 12.153V13.8713C17.7173 14.444 18.0191 14.7304 18.6225 14.7304H20.3423C20.9382 14.7384 21.2323 14.452 21.2323 13.8713ZM31.6416 4.75498C31.6416 5.24024 31.4832 5.64594 31.1664 5.99594C30.8421 6.33005 30.4498 6.4971 29.9897 6.4971C29.5371 6.4971 29.1524 6.33005 28.8356 5.98005C28.5188 5.63797 28.368 5.23227 28.368 4.75498C28.368 4.27769 28.5188 3.87199 28.8281 3.52991C29.1449 3.18783 29.5296 3.01286 29.9822 3.01286C30.4423 3.01286 30.8345 3.18788 31.1589 3.52199C31.4832 3.86406 31.6416 4.26976 31.6416 4.75498ZM27.8324 4.75498C27.8324 5.24024 27.674 5.63797 27.3572 5.98005C27.0329 6.33005 26.6557 6.4971 26.1956 6.4971C25.743 6.4971 25.3583 6.33005 25.034 5.98005C24.7096 5.63797 24.5512 5.23227 24.5512 4.75498C24.5512 4.27769 24.7096 3.87199 25.034 3.52991C25.3508 3.18783 25.743 3.01286 26.1956 3.01286C26.6557 3.01286 27.0329 3.18788 27.3572 3.52991C27.674 3.87199 27.8324 4.26972 27.8324 4.75498ZM39.0337 4.68339C39.0337 5.16068 38.8678 5.56638 38.5434 5.91638C38.2191 6.25846 37.8344 6.43343 37.3743 6.43343C36.9217 6.43343 36.537 6.25841 36.2126 5.91638C35.8808 5.56638 35.7224 5.15271 35.7224 4.68339C35.7224 4.19812 35.8808 3.79242 36.2126 3.45832C36.5295 3.11624 36.9217 2.94919 37.3743 2.94919C37.8344 2.94919 38.2115 3.11624 38.5434 3.45832C38.8678 3.79242 39.0337 4.20609 39.0337 4.68339ZM39.1016 13.8474V12.1212C39.1016 11.5723 38.8074 11.2939 38.2342 11.2939H36.5219C35.9486 11.2939 35.662 11.5644 35.662 12.1212V13.8474C35.662 14.3963 35.9486 14.6907 36.5219 14.6907H38.2342C38.8074 14.6986 39.1016 14.4043 39.1016 13.8474ZM51.0873 13.8474V12.1212C51.0873 11.5723 50.7932 11.2939 50.2199 11.2939H47.7081V14.6907H50.2199C50.8007 14.6986 51.0873 14.4043 51.0873 13.8474ZM64.0688 18.1271H60.7649V0.00585938H64.0688V18.1271Z" fill="#2785C7"/>
<path d="M39.8828 34.7939C39.8828 37.26 41.7308 38.9862 44.039 38.9862C46.3622 38.9862 48.2027 37.252 48.2027 34.7939C48.2027 32.3438 46.3547 30.6096 44.039 30.6096C41.7308 30.6096 39.8828 32.3518 39.8828 34.7939ZM65.3327 38.7952H67.2034V35.1201C67.2034 34.7462 67.2486 34.3882 67.3618 34.0541C67.6258 33.0995 68.3801 32.4234 69.3984 32.4234C70.3563 32.4234 70.5902 33.0836 70.5902 34.0541V37.7293C70.5902 38.485 70.8843 38.7952 71.5934 38.7952H73.4037V37.1167H72.8002C72.5966 37.1167 72.4759 36.9894 72.4759 36.7747V33.6484C72.4759 31.5244 71.5029 30.6017 69.8208 30.6017C68.2896 30.6017 67.4749 31.5801 67.143 32.2642H67.1129C67.1129 32.2642 67.143 32.0972 67.143 31.9142V31.6836C67.143 31.1267 66.8187 30.7926 66.1549 30.7926H64.4125V32.487H65.0084C65.2196 32.487 65.3327 32.5983 65.3327 32.8291V38.7952ZM56.9902 34.7939C56.9902 37.0691 58.5592 38.9862 61.071 38.9862C62.9567 38.9862 64.1183 37.777 64.1183 37.777L63.3338 36.3929C63.3338 36.3929 62.4287 37.2838 61.2067 37.2838C60.0602 37.2838 59.0796 36.544 58.9288 35.128H64.1711C64.1711 35.128 64.2164 34.6349 64.2164 34.3962C64.2164 32.2722 63.0246 30.5938 60.8522 30.5938C58.5667 30.6096 56.9902 32.3359 56.9902 34.7939ZM58.9816 33.7598C59.1928 32.7495 59.8716 32.137 60.8447 32.137C61.6216 32.137 62.2477 32.7972 62.2703 33.7598H58.9816ZM49.2134 41.9454H51.0916V38.6282C51.0916 38.2225 51.0615 37.9361 51.0615 37.9361H51.0916C51.0916 37.9361 51.7554 38.9941 53.264 38.9941C55.2629 38.9941 56.7413 37.3395 56.7413 34.8019C56.7413 32.32 55.4213 30.6176 53.3621 30.6176C51.5895 30.6176 50.9483 31.8824 50.9483 31.8824H50.9257V31.5722C50.9257 31.1347 50.6692 30.8006 49.9753 30.8006H48.2932V32.495H48.8891C49.1003 32.495 49.2134 32.6063 49.2134 32.837V41.9454ZM51.0464 34.8417C51.0464 33.0677 51.9666 32.32 52.9472 32.32C54.0636 32.32 54.8405 33.3064 54.8405 34.8337C54.8405 36.4088 53.958 37.3077 52.9246 37.3077C51.6724 37.3077 51.0464 36.0826 51.0464 34.8417ZM41.7912 34.7939C41.7912 33.3143 42.817 32.304 44.039 32.304C45.2685 32.304 46.3019 33.3222 46.3019 34.7939C46.3019 36.2894 45.2685 37.2838 44.039 37.2838C42.817 37.2918 41.7912 36.2895 41.7912 34.7939Z" fill="#808184"/>
<path d="M96.847 34.7937C96.847 37.2756 98.1595 38.9859 100.204 38.9859C101.84 38.9859 102.489 37.8483 102.489 37.8483H102.519C102.519 37.8483 102.489 38.1347 102.489 38.5404V41.9372H104.375V32.8288C104.375 32.5982 104.511 32.4868 104.699 32.4868H105.303V30.7924H103.636C102.942 30.7924 102.663 31.0946 102.663 31.5003V31.7787H102.632C102.632 31.7787 101.999 30.6094 100.279 30.6094C98.2727 30.6094 96.847 32.256 96.847 34.7937ZM73.3281 37.554C73.3281 37.554 74.4068 38.9938 76.4811 38.9938C78.1481 38.9938 79.4153 38.0552 79.4153 36.5358C79.4153 33.8709 75.3647 34.1175 75.3647 32.8686C75.3647 32.3913 75.8324 32.1368 76.4962 32.1368C76.9261 32.1368 77.4541 32.3277 77.4541 32.7015V33.0993H79.1211V32.272C79.1211 30.9674 77.4843 30.6094 76.4509 30.6094C74.8744 30.6094 73.5016 31.3413 73.5016 32.9402C73.5016 35.5335 77.5069 35.5176 77.5069 36.6551C77.5069 37.1881 77.0619 37.4426 76.4735 37.4426C75.1761 37.4426 74.2182 36.2653 74.2182 36.2653L73.3281 37.554ZM79.6944 34.7937C79.6944 37.2597 81.5349 38.9859 83.8505 38.9859C86.1662 38.9859 88.0218 37.2517 88.0218 34.7937C88.0218 32.3436 86.1662 30.6094 83.8505 30.6094C81.5349 30.6094 79.6944 32.3515 79.6944 34.7937ZM81.5952 34.7937C81.5952 33.3141 82.6286 32.3038 83.8505 32.3038C85.0876 32.3038 86.121 33.322 86.121 34.7937C86.121 36.2892 85.0876 37.2836 83.8505 37.2836C82.6286 37.2915 81.5952 36.2892 81.5952 34.7937ZM88.2707 34.7937C88.2707 37.2597 90.1112 38.9859 92.4118 38.9859C94.7426 38.9859 96.583 37.2517 96.583 34.7937C96.583 32.3436 94.7426 30.6094 92.4118 30.6094C90.1112 30.6094 88.2707 32.3515 88.2707 34.7937ZM90.1715 34.7937C90.1715 33.3141 91.2049 32.3038 92.4118 32.3038C93.6488 32.3038 94.6822 33.322 94.6822 34.7937C94.6822 36.2892 93.6488 37.2836 92.4118 37.2836C91.1974 37.2915 90.1715 36.2892 90.1715 34.7937ZM100.626 37.3074C99.5248 37.3074 98.7403 36.321 98.7403 34.8016C98.7403 33.2266 99.6228 32.3197 100.656 32.3197C101.923 32.3197 102.542 33.5368 102.542 34.7937C102.542 36.5517 101.614 37.3074 100.626 37.3074Z" fill="#808184"/>
<path d="M105.227 38.9068H105.966V38.1034H105.227V38.9068ZM112.913 38.9068H113.667V37.4988C113.667 37.3476 113.682 37.2204 113.712 37.0931C113.818 36.6715 114.067 36.3453 114.452 36.3453C114.821 36.3453 114.866 36.6476 114.866 36.9897V38.8988H115.636V37.4908C115.636 37.3317 115.636 37.2045 115.681 37.0772C115.757 36.6635 116.036 36.3374 116.42 36.3374C116.76 36.3374 116.835 36.6158 116.835 36.9817V38.4772C116.835 38.7716 116.956 38.8988 117.235 38.8988H117.959V38.2386H117.725C117.65 38.2386 117.605 38.1829 117.605 38.0874V36.8305C117.605 35.9873 117.235 35.6055 116.601 35.6055C116.119 35.6055 115.719 35.9237 115.553 36.2737H115.538C115.402 35.8361 115.108 35.6055 114.655 35.6055C114.172 35.6055 113.803 35.9634 113.652 36.2817V36.043C113.652 35.8123 113.516 35.685 113.252 35.685H112.536V36.3612H112.785C112.86 36.3612 112.92 36.4089 112.92 36.5044V38.9068H112.913V38.9068ZM109.156 37.3079C109.156 38.3022 109.896 38.9943 110.823 38.9943C111.766 38.9943 112.506 38.3022 112.506 37.3079C112.506 36.3215 111.766 35.6135 110.823 35.6135C109.896 35.6135 109.156 36.3215 109.156 37.3079ZM109.926 37.3079C109.926 36.7192 110.341 36.3056 110.823 36.3056C111.321 36.3056 111.736 36.7192 111.736 37.3079C111.736 37.9045 111.321 38.3102 110.823 38.3102C110.341 38.3102 109.926 37.9045 109.926 37.3079ZM106.23 37.3079C106.23 38.2466 106.863 38.9943 107.882 38.9943C108.704 38.9943 109.164 38.4136 109.164 38.4136L108.855 37.8647C108.855 37.8647 108.47 38.3022 107.942 38.3022C107.459 38.3022 106.999 37.9681 106.999 37.3079C106.999 36.7272 107.369 36.3056 107.897 36.3056C108.085 36.3056 108.342 36.3772 108.342 36.5601V36.7272H109.006V36.3533C109.006 35.7964 108.297 35.6135 107.904 35.6135C106.848 35.6135 106.23 36.3931 106.23 37.3079Z" fill="#808184"/>
<path fill-rule="evenodd" clip-rule="evenodd" d="M4.86574 18.5172C5.54461 17.8729 6.36679 17.5547 7.33228 17.5547H12.8688V10.9044C12.8613 10.9124 12.8537 10.9044 12.8462 10.9044V10.3714C12.8462 8.78043 11.941 7.98492 10.1383 7.98492C7.84521 7.98492 4.1567 8.12811 3.26664 7.62695C3.26664 11.0635 3.71921 11.1271 7.82258 11.1271C8.82579 11.1271 9.33117 11.6044 9.33117 12.551V14.3011H6.92497C4.99397 14.3011 3.35715 14.9216 2.02205 16.1625C0.686947 17.3955 0.015625 18.9388 0.015625 20.7764C0.015625 22.606 0.679404 24.1891 2.02205 25.4936C3.36469 26.7982 4.99397 27.4505 6.92497 27.4505H12.8764V24.1731H7.33228C6.35924 24.1731 5.52952 23.847 4.8582 23.2106C4.18688 22.5662 3.84744 21.7787 3.84744 20.8559C3.84744 19.9332 4.18688 19.1536 4.86574 18.5172V18.5172Z" fill="#2785C7"/>
</svg>
