<svg width="165" height="32" viewBox="0 0 165 32" fill="none" xmlns="http://www.w3.org/2000/svg">
<path d="M27.4397 8.33417C27.23 8.0022 27.0028 7.6877 26.7582 7.39068C26.0768 6.52581 25.3168 5.73958 24.4257 5.05817L21.2546 8.22934L15.9605 13.5234L8.54366 6.08028H8.51746L7.52155 5.08437L6.0539 6.55202C5.47732 7.18101 4.98811 7.81001 4.58625 8.439C3.27585 10.4308 2.69927 12.3178 2.4634 13.6806C2.4634 13.733 2.45466 13.7854 2.43719 13.8379C2.34983 14.4843 2.30615 15.1395 2.30615 15.8035C2.30615 19.0008 3.40689 21.9361 5.24145 24.2686L8.41262 21.0975C7.3643 19.6036 6.76152 17.7691 6.76152 15.8035C6.76152 15.157 6.82267 14.5367 6.94497 13.9427L12.6583 19.6298V29.484H19.3152V19.7347L25.0285 13.9951C25.1508 14.5892 25.212 15.1919 25.212 15.8035C25.212 17.7691 24.6092 19.5774 23.5871 21.0713L26.7582 24.2424C28.5928 21.9099 29.6673 19.0008 29.6673 15.8035C29.6673 13.0516 28.8549 10.4832 27.4397 8.33417Z" fill="#124D98"/>
<path fill-rule="evenodd" clip-rule="evenodd" d="M31.9738 16.0131C31.9738 20.2326 30.2965 24.321 27.2826 27.3088C24.2948 30.2965 20.2326 32 15.9869 32C12.8157 32 9.72318 31.0565 7.10237 29.3006C4.45536 27.5446 2.41114 25.0549 1.20557 22.1196C0.39312 20.1802 0 18.0835 0 16.0131C0 14.9648 0.0960957 13.9252 0.288288 12.8943C0.917281 9.77559 2.43735 6.91892 4.66503 4.69124C6.91892 2.46355 9.74938 0.943488 12.8681 0.314496C13.899 0.104831 14.9386 0 15.9869 0C18.0835 0 20.154 0.419328 22.0934 1.23178C25.0287 2.43735 27.5184 4.48157 29.2744 7.12858C31.0303 9.74939 31.9738 12.8419 31.9738 16.0131ZM28.724 24.5045C30.4013 21.9885 31.3186 19.027 31.3186 16.0131C31.2924 11.9509 29.6937 8.04586 26.8108 5.16298C23.9279 2.30631 20.0491 0.681406 15.9869 0.681406H15.9345C12.9206 0.681406 9.98526 1.59869 7.46929 3.276C4.95332 4.95332 2.98772 7.33825 1.83456 10.1425C1.04832 12.0033 0.655201 13.9951 0.655201 16.0131C0.655201 17.009 0.760032 18.0049 0.969696 19.0008C1.54627 21.9623 3.01392 24.688 5.16298 26.837C7.28583 28.9861 10.0115 30.4275 12.9992 31.0303C13.9951 31.2225 14.991 31.3186 15.9869 31.3186C17.9787 31.3186 19.9705 30.9255 21.8575 30.1654C24.6355 28.9861 27.0467 27.0467 28.724 24.5045Z" fill="#124D98"/>
<path d="M55.4299 4.56018L50.1359 19.0008V27.2039H44.6846V19.0008L39.8623 4.56018H45.2874L47.7247 13.4709L50.3717 4.56018H55.4299Z" fill="#124D98"/>
<path fill-rule="evenodd" clip-rule="evenodd" d="M61.1696 16.1703H56.2163V14.5978C56.2163 13.1477 56.3823 12.0382 56.7143 11.2694C57.0462 10.4832 57.7102 9.79304 58.7061 9.19899C59.702 8.59621 60.6455 8.30792 62.2442 8.30792C64.1661 8.30792 65.6075 8.64863 66.5685 9.33003C67.5382 9.98523 67.8003 10.8239 67.9837 11.8198C68.1759 12.7982 68.272 14.825 68.272 17.9001V27.2039H63.4497V25.5528C63.1003 26.2167 62.6547 26.7147 62.1131 27.0467C61.5715 27.3786 60.925 27.5446 60.1737 27.5446C59.1778 27.5446 58.2693 27.2651 57.4481 26.706C56.6269 26.1469 56.2163 24.9325 56.2163 23.063V21.8837C56.2163 20.4859 56.4347 19.5337 56.8715 19.027C57.3083 18.5378 58.3916 17.9525 60.1213 17.2711C61.9733 16.5372 62.9692 16.048 63.109 15.8034C63.2401 15.5413 63.2925 14.7027 63.2925 13.9426C63.2925 12.9642 63.2226 12.3265 63.0828 12.0295C62.943 11.7324 62.7072 11.5839 62.3752 11.5839C61.9821 11.5839 61.4579 11.715 61.3793 11.977C61.2745 12.2129 61.1696 12.8419 61.1696 13.8902V16.1703ZM62.978 18.7125C62.0694 19.3764 61.5365 19.9356 61.3793 20.3898C61.2395 20.8266 61.1696 21.4644 61.1696 22.303C61.1696 23.264 61.2308 23.8842 61.3531 24.1638C61.4929 24.4433 61.7462 24.5831 62.1131 24.5831C62.4626 24.5831 62.6897 24.4783 62.7945 24.2686C62.9168 24.0415 62.978 23.4649 62.978 22.5389V18.7125Z" fill="#124D98"/>
<path fill-rule="evenodd" clip-rule="evenodd" d="M86.9844 16.1703H82.0049V14.5978C82.0049 13.1477 82.1709 12.0382 82.5028 11.2694C82.8348 10.4832 83.4987 9.79304 84.4946 9.19899C85.4906 8.59621 86.4602 8.30792 88.0589 8.30792C89.9634 8.30792 91.4048 8.64863 92.3833 9.33003C93.353 9.98523 93.5888 10.8239 93.7985 11.8198C93.9907 12.7982 94.0868 14.825 94.0868 17.9001V27.2039H89.2645V25.5528C88.9151 26.2167 88.4695 26.7147 87.9279 27.0467C87.3863 27.3786 86.7311 27.5446 85.9623 27.5446C84.9839 27.5446 84.084 27.2651 83.2629 26.706C82.4242 26.1469 82.0049 24.9325 82.0049 23.063V21.8837C82.0049 20.4859 82.2233 19.5337 82.6601 19.027C83.1144 18.5378 84.2064 17.9525 85.9361 17.2711C87.7881 16.5372 88.784 16.048 88.9238 15.8034C89.0548 15.5413 89.1073 14.7027 89.1073 13.9426C89.1073 12.9642 89.0374 12.3265 88.8976 12.0295C88.7403 11.7324 88.4957 11.5839 88.1638 11.5839C87.7969 11.5839 87.2727 11.715 87.1941 11.977C87.0892 12.2129 86.9844 12.8419 86.9844 13.8902V16.1703ZM88.7666 18.7125C87.858 19.3764 87.3338 19.9356 87.1941 20.3898C87.0543 20.8266 86.9844 21.4644 86.9844 22.303C86.9844 23.264 87.0456 23.8842 87.1679 24.1638C87.2902 24.4433 87.5435 24.5831 87.9279 24.5831C88.2773 24.5831 88.5045 24.4783 88.6093 24.2686C88.7141 24.0415 88.7666 23.4649 88.7666 22.5389V18.7125Z" fill="#124D98"/>
<path d="M74.2214 27.2039H69.3467V4.56018H74.2214V27.2039Z" fill="#124D98"/>
<path d="M81.1139 27.1253H76.2393V4.45538H81.1139V27.1253Z" fill="#124D98"/>
<path d="M95.3188 27.0991V4.56018H102.526L104.177 16.3276C104.317 17.2361 104.448 18.4941 104.57 20.1015C104.588 20.2413 104.596 20.3462 104.596 20.416L104.78 20.3898C104.832 19.6735 104.902 18.9746 104.99 18.2932C105.077 17.5943 105.191 16.8343 105.33 16.0131L107.296 4.56018H114.189V27.0991H109.628V15.1744C109.611 14.5629 109.611 13.8466 109.628 13.0254C109.646 12.2217 109.672 11.3131 109.707 10.2997H109.576C109.506 11.6101 109.349 12.8943 109.104 14.1523C109.087 14.1873 109.078 14.2135 109.078 14.2309L106.641 27.0991H102.369L100.01 14.8861C99.9402 14.4668 99.8616 13.864 99.7742 13.0778C99.6869 12.2916 99.5995 11.3655 99.5121 10.2997H99.3549V10.7977C99.3724 15.5151 99.3811 20.9489 99.3811 27.0991H95.3188Z" fill="#333333"/>
<path fill-rule="evenodd" clip-rule="evenodd" d="M115.63 13.7854C115.63 11.9159 116.093 10.588 117.019 9.80178C117.927 9.03301 119.439 8.64862 121.553 8.64862C123.65 8.64862 125.161 9.03301 126.087 9.80178C126.995 10.588 127.45 11.9159 127.45 13.7854V22.4078C127.45 24.2599 126.995 25.579 126.087 26.3652C125.161 27.1515 123.65 27.5446 121.553 27.5446C119.439 27.5446 117.927 27.1515 117.019 26.3652C116.093 25.579 115.63 24.2599 115.63 22.4078V13.7854ZM120.688 12.5536V23.4824C120.688 23.8842 120.758 24.1638 120.898 24.321C121.037 24.4957 121.265 24.5831 121.579 24.5831C121.911 24.5831 122.147 24.4957 122.287 24.321C122.427 24.1638 122.496 23.8842 122.496 23.4824V12.5536C122.496 12.1692 122.418 11.8897 122.261 11.715C122.121 11.5402 121.885 11.4529 121.553 11.4529C121.238 11.4529 121.011 11.5402 120.871 11.715C120.749 11.8722 120.688 12.1518 120.688 12.5536Z" fill="#333333"/>
<path fill-rule="evenodd" clip-rule="evenodd" d="M139.479 13.7854C139.479 11.9159 139.933 10.588 140.842 9.80178C141.768 9.03301 143.279 8.64862 145.376 8.64862C147.472 8.64862 148.984 9.03301 149.91 9.80178C150.818 10.588 151.273 11.9159 151.273 13.7854V22.4078C151.273 24.2599 150.818 25.579 149.91 26.3652C148.984 27.1515 147.472 27.5446 145.376 27.5446C143.279 27.5446 141.768 27.1515 140.842 26.3652C139.933 25.579 139.479 24.2599 139.479 22.4078V13.7854ZM144.511 12.5536V23.4824C144.511 23.8842 144.581 24.1638 144.721 24.321C144.86 24.4957 145.088 24.5831 145.402 24.5831C145.734 24.5831 145.97 24.4957 146.11 24.321C146.249 24.1638 146.319 23.8842 146.319 23.4824V12.5536C146.319 12.1692 146.241 11.8897 146.083 11.715C145.944 11.5402 145.708 11.4529 145.376 11.4529C145.061 11.4529 144.843 11.5402 144.721 11.715C144.581 11.8722 144.511 12.1518 144.511 12.5536Z" fill="#333333"/>
<path d="M128.21 11.6101V9.06795H130.359V5.37262H135.601V9.06795H137.986V11.6101H135.601V22.9058C135.601 23.4649 135.705 23.8231 135.915 23.9803C136.099 24.1114 137.173 24.19 137.776 24.19H137.986V27.0991H134.29C132.858 27.0991 131.844 26.8807 131.25 26.4439C130.656 25.9896 130.359 25.1509 130.359 23.9279V11.6101H128.21Z" fill="#333333"/>
<path d="M152.767 27.0991V9.068H157.353V10.5881H157.432C157.851 9.9416 158.358 9.46985 158.952 9.17283C159.546 8.8758 160.236 8.72729 161.022 8.72729C162.105 8.72729 162.918 8.98938 163.459 9.51354C164.001 10.0202 164.272 10.7803 164.272 11.7936V16.4325H159.24V13.104C159.24 12.7022 159.17 12.4226 159.03 12.2654C158.908 12.1256 158.681 12.0557 158.349 12.0557C158.034 12.0557 157.799 12.1431 157.641 12.3178C157.502 12.475 157.432 12.7371 157.432 13.104V27.0991H152.767Z" fill="#333333"/>
</svg>
